<svg width="662" height="177" viewBox="0 0 662 177" fill="none" xmlns="http://www.w3.org/2000/svg">
<rect y="14" width="137" height="137" fill="#62AEEF"/>
<path d="M62.9413 109.609C70.3033 109.608 77.4531 107.143 83.2523 102.608L101.485 120.841L107.35 114.976L89.117 96.7433C93.6545 90.9435 96.1206 83.7921 96.1224 76.4282C96.1224 58.133 81.2365 43.2472 62.9413 43.2472C44.6462 43.2472 29.7603 58.133 29.7603 76.4282C29.7603 94.7234 44.6462 109.609 62.9413 109.609ZM62.9413 51.5425C76.6658 51.5425 87.8271 62.7037 87.8271 76.4282C87.8271 90.1527 76.6658 101.314 62.9413 101.314C49.2168 101.314 38.0556 90.1527 38.0556 76.4282C38.0556 62.7037 49.2168 51.5425 62.9413 51.5425Z" fill="white"/>
<path d="M68.7978 70.5635C70.3698 72.1396 71.2366 74.2217 71.2366 76.4282H79.5319C79.5355 74.2483 79.1071 72.0894 78.2713 70.0761C77.4355 68.0628 76.209 66.2351 74.6625 64.6987C68.383 58.4275 57.4955 58.4275 51.2202 64.6987L57.0766 70.5718C60.2288 67.4279 65.6622 67.4362 68.7978 70.5635Z" fill="white"/>
<path d="M226.18 39.7344H221.844C221.703 40.7656 221.461 41.7266 221.117 42.6172C220.773 43.4922 220.312 44.25 219.734 44.8906C219.156 45.5469 218.445 46.0547 217.602 46.4141C216.773 46.7734 215.789 46.9531 214.648 46.9531C213.602 46.9531 212.688 46.7891 211.906 46.4609C211.125 46.1172 210.445 45.6484 209.867 45.0547C209.289 44.4766 208.812 43.8047 208.438 43.0391C208.062 42.2734 207.758 41.4531 207.523 40.5781C207.289 39.7188 207.117 38.8438 207.008 37.9531C206.914 37.0469 206.867 36.1719 206.867 35.3281V30.5234C206.867 29.6797 206.914 28.8125 207.008 27.9219C207.117 27.0156 207.289 26.1328 207.523 25.2734C207.758 24.4141 208.062 23.6016 208.438 22.8359C208.828 22.0703 209.312 21.3984 209.891 20.8203C210.453 20.2422 211.125 19.7891 211.906 19.4609C212.703 19.1172 213.617 18.9453 214.648 18.9453C215.789 18.9453 216.773 19.1406 217.602 19.5312C218.445 19.9062 219.156 20.4297 219.734 21.1016C220.312 21.7734 220.773 22.5547 221.117 23.4453C221.461 24.3359 221.703 25.2969 221.844 26.3281H226.18C225.992 24.7031 225.602 23.2188 225.008 21.875C224.43 20.5312 223.656 19.375 222.688 18.4062C221.719 17.4531 220.562 16.7188 219.219 16.2031C217.875 15.6719 216.352 15.4062 214.648 15.4062C213.227 15.4062 211.945 15.6094 210.805 16.0156C209.664 16.4062 208.648 16.9531 207.758 17.6562C206.852 18.3594 206.07 19.1953 205.414 20.1641C204.773 21.1172 204.242 22.1562 203.82 23.2812C203.383 24.4062 203.055 25.5859 202.836 26.8203C202.633 28.0547 202.523 29.3047 202.508 30.5703V35.3281C202.523 36.5938 202.633 37.8438 202.836 39.0781C203.055 40.3125 203.383 41.4922 203.82 42.6172C204.242 43.7422 204.773 44.7812 205.414 45.7344C206.07 46.6875 206.852 47.5156 207.758 48.2188C208.648 48.9219 209.664 49.4766 210.805 49.8828C211.961 50.2734 213.242 50.4688 214.648 50.4688C216.289 50.4688 217.773 50.2109 219.102 49.6953C220.445 49.1641 221.609 48.4219 222.594 47.4688C223.562 46.5312 224.352 45.4062 224.961 44.0938C225.57 42.7656 225.977 41.3125 226.18 39.7344ZM249.523 24.1719C247.68 24.1719 246.031 24.5781 244.578 25.3906C243.141 26.1875 241.906 27.2812 240.875 28.6719L240.852 28.0391L240.664 24.6406H236.539V50H240.898V33.7344C241.18 32.9531 241.531 32.25 241.953 31.625C242.391 30.9844 242.898 30.4453 243.477 30.0078C244.117 29.5078 244.867 29.1328 245.727 28.8828C246.586 28.6172 247.547 28.4844 248.609 28.4844C249.438 28.4844 250.227 28.5312 250.977 28.625C251.742 28.7031 252.547 28.8359 253.391 29.0234L253.977 24.7812C253.539 24.5938 252.883 24.4453 252.008 24.3359C251.148 24.2266 250.32 24.1719 249.523 24.1719ZM278.398 50H282.922V49.625C282.641 48.9219 282.422 48.1016 282.266 47.1641C282.109 46.2109 282.031 45.3125 282.031 44.4688V32.6797C282.031 31.2578 281.773 30.0156 281.258 28.9531C280.742 27.8906 280.039 27 279.148 26.2812C278.242 25.5781 277.172 25.0547 275.938 24.7109C274.703 24.3516 273.367 24.1719 271.93 24.1719C270.352 24.1719 268.938 24.3906 267.688 24.8281C266.453 25.2656 265.406 25.8359 264.547 26.5391C263.672 27.2578 263 28.0625 262.531 28.9531C262.078 29.8438 261.844 30.75 261.828 31.6719H266.188C266.188 31.1406 266.312 30.6328 266.562 30.1484C266.828 29.6484 267.195 29.2188 267.664 28.8594C268.133 28.5 268.703 28.2109 269.375 27.9922C270.062 27.7734 270.836 27.6641 271.695 27.6641C272.617 27.6641 273.445 27.7812 274.18 28.0156C274.93 28.25 275.562 28.5781 276.078 29C276.594 29.4375 276.992 29.9609 277.273 30.5703C277.555 31.1797 277.695 31.8672 277.695 32.6328V34.625H272.961C271.195 34.625 269.594 34.7969 268.156 35.1406C266.734 35.4844 265.516 36 264.5 36.6875C263.484 37.3906 262.695 38.2656 262.133 39.3125C261.586 40.3594 261.312 41.5781 261.312 42.9688C261.312 44.0312 261.516 45.0234 261.922 45.9453C262.344 46.8516 262.938 47.6328 263.703 48.2891C264.453 48.9609 265.367 49.4922 266.445 49.8828C267.539 50.2734 268.758 50.4688 270.102 50.4688C270.93 50.4688 271.711 50.3828 272.445 50.2109C273.18 50.0391 273.875 49.8047 274.531 49.5078C275.172 49.2109 275.758 48.8672 276.289 48.4766C276.836 48.0859 277.328 47.6719 277.766 47.2344C277.812 47.7656 277.883 48.2812 277.977 48.7812C278.086 49.2656 278.227 49.6719 278.398 50ZM270.734 46.6953C269.891 46.6953 269.148 46.5859 268.508 46.3672C267.867 46.1484 267.336 45.8438 266.914 45.4531C266.492 45.0781 266.172 44.625 265.953 44.0938C265.75 43.5625 265.648 42.9844 265.648 42.3594C265.648 41.7031 265.766 41.1172 266 40.6016C266.25 40.0859 266.609 39.6406 267.078 39.2656C267.734 38.7344 268.617 38.3438 269.727 38.0938C270.852 37.8281 272.164 37.6953 273.664 37.6953H277.695V42.8281C277.445 43.3281 277.102 43.8125 276.664 44.2812C276.227 44.7344 275.711 45.1406 275.117 45.5C274.508 45.8594 273.836 46.1484 273.102 46.3672C272.367 46.5859 271.578 46.6953 270.734 46.6953ZM312.055 37.6016V37.1094C312.055 35.7812 311.945 34.5234 311.727 33.3359C311.508 32.1328 311.188 31.0391 310.766 30.0547C310.359 29.1797 309.891 28.3906 309.359 27.6875C308.828 26.9688 308.227 26.3594 307.555 25.8594C306.805 25.3281 305.969 24.9141 305.047 24.6172C304.125 24.3203 303.117 24.1719 302.023 24.1719C301.148 24.1719 300.336 24.2578 299.586 24.4297C298.836 24.6016 298.148 24.8516 297.523 25.1797C297.023 25.4453 296.555 25.7656 296.117 26.1406C295.68 26.5 295.281 26.9062 294.922 27.3594V14H290.586V50H294.57L294.781 47.1172C295.062 47.4766 295.359 47.8047 295.672 48.1016C295.984 48.3984 296.312 48.6719 296.656 48.9219C297.375 49.4219 298.18 49.8047 299.07 50.0703C299.977 50.3359 300.977 50.4688 302.07 50.4688C303.023 50.4688 303.906 50.3516 304.719 50.1172C305.547 49.8828 306.305 49.5547 306.992 49.1328C307.945 48.5234 308.758 47.7578 309.43 46.8359C310.117 45.8984 310.672 44.8438 311.094 43.6719C311.406 42.7812 311.641 41.8281 311.797 40.8125C311.969 39.7812 312.055 38.7109 312.055 37.6016ZM307.719 37.1094V37.6016C307.719 38.3516 307.672 39.0859 307.578 39.8047C307.484 40.5234 307.336 41.1953 307.133 41.8203C306.883 42.6484 306.547 43.3984 306.125 44.0703C305.703 44.7422 305.18 45.2969 304.555 45.7344C304.086 46.0781 303.555 46.3438 302.961 46.5312C302.367 46.7031 301.711 46.7891 300.992 46.7891C300.242 46.7891 299.555 46.6953 298.93 46.5078C298.305 46.3047 297.742 46.0234 297.242 45.6641C296.742 45.3047 296.297 44.8906 295.906 44.4219C295.531 43.9375 295.203 43.4141 294.922 42.8516V31.7656C295.188 31.2031 295.508 30.6875 295.883 30.2188C296.273 29.7344 296.719 29.3125 297.219 28.9531C297.703 28.6094 298.258 28.3438 298.883 28.1562C299.508 27.9531 300.195 27.8516 300.945 27.8516C301.633 27.8516 302.258 27.9297 302.82 28.0859C303.383 28.2422 303.891 28.4609 304.344 28.7422C305 29.1328 305.555 29.6719 306.008 30.3594C306.461 31.0469 306.828 31.8047 307.109 32.6328C307.312 33.3047 307.461 34.0234 307.555 34.7891C307.664 35.5391 307.719 36.3125 307.719 37.1094Z" fill="white"/>
<path d="M220.25 140.359V82.75H207.031V151H252.219V140.359H220.25ZM295.953 151H309.172V150.203C308.516 148.922 308.016 147.391 307.672 145.609C307.328 143.828 307.156 141.578 307.156 138.859V117.109C307.156 114.172 306.609 111.594 305.516 109.375C304.422 107.125 302.906 105.266 300.969 103.797C299.031 102.328 296.734 101.219 294.078 100.469C291.453 99.7188 288.609 99.3438 285.547 99.3438C282.141 99.3438 279.109 99.7812 276.453 100.656C273.828 101.5 271.609 102.656 269.797 104.125C267.953 105.594 266.547 107.297 265.578 109.234C264.641 111.172 264.172 113.219 264.172 115.375H277.203C277.203 114.469 277.328 113.641 277.578 112.891C277.859 112.141 278.281 111.5 278.844 110.969C279.469 110.375 280.281 109.922 281.281 109.609C282.281 109.266 283.469 109.094 284.844 109.094C286.406 109.094 287.766 109.297 288.922 109.703C290.109 110.078 291.094 110.625 291.875 111.344C292.625 112.031 293.188 112.859 293.562 113.828C293.938 114.766 294.125 115.828 294.125 117.016V120.016H286.859C283.109 120.016 279.781 120.359 276.875 121.047C274 121.703 271.578 122.672 269.609 123.953C267.422 125.359 265.781 127.156 264.688 129.344C263.594 131.5 263.047 133.984 263.047 136.797C263.047 138.984 263.484 141.016 264.359 142.891C265.234 144.734 266.453 146.328 268.016 147.672C269.578 149.016 271.438 150.062 273.594 150.812C275.781 151.562 278.172 151.938 280.766 151.938C282.359 151.938 283.844 151.781 285.219 151.469C286.594 151.188 287.859 150.781 289.016 150.25C290.141 149.75 291.172 149.156 292.109 148.469C293.047 147.781 293.875 147.047 294.594 146.266C294.75 147.172 294.938 148.031 295.156 148.844C295.375 149.656 295.641 150.375 295.953 151ZM283.531 141.859C282.312 141.859 281.234 141.719 280.297 141.438C279.391 141.125 278.625 140.719 278 140.219C277.375 139.688 276.891 139.047 276.547 138.297C276.234 137.516 276.078 136.672 276.078 135.766C276.078 134.609 276.297 133.547 276.734 132.578C277.172 131.578 277.844 130.719 278.75 130C279.656 129.312 280.828 128.781 282.266 128.406C283.703 128 285.438 127.797 287.469 127.797H294.125V136.516C293.75 137.172 293.234 137.828 292.578 138.484C291.922 139.109 291.141 139.672 290.234 140.172C289.328 140.672 288.312 141.078 287.188 141.391C286.062 141.703 284.844 141.859 283.531 141.859ZM355.016 151H366.828V100.281H353.75V135.859C353.344 136.672 352.859 137.406 352.297 138.062C351.734 138.719 351.094 139.281 350.375 139.75C349.531 140.281 348.547 140.688 347.422 140.969C346.328 141.25 345.094 141.391 343.719 141.391C342.188 141.391 340.891 141.203 339.828 140.828C338.766 140.453 337.906 139.828 337.25 138.953C336.594 138.109 336.109 136.984 335.797 135.578C335.516 134.172 335.375 132.438 335.375 130.375V100.281H322.344V130.281C322.344 134.125 322.766 137.422 323.609 140.172C324.484 142.891 325.703 145.125 327.266 146.875C328.828 148.656 330.703 149.953 332.891 150.766C335.078 151.578 337.484 151.984 340.109 151.984C342.984 151.984 345.625 151.266 348.031 149.828C350.469 148.391 352.547 146.406 354.266 143.875L355.016 151ZM379.578 151H392.656V114.953C393.094 114.266 393.578 113.641 394.109 113.078C394.641 112.516 395.234 112.031 395.891 111.625C396.703 111.062 397.625 110.641 398.656 110.359C399.719 110.078 400.875 109.938 402.125 109.938C403.625 109.938 404.969 110.094 406.156 110.406C407.344 110.688 408.359 111.203 409.203 111.953C410.047 112.703 410.688 113.734 411.125 115.047C411.594 116.328 411.828 117.969 411.828 119.969V151H424.859V119.781C424.859 116.094 424.422 112.969 423.547 110.406C422.703 107.812 421.516 105.688 419.984 104.031C418.422 102.406 416.578 101.219 414.453 100.469C412.328 99.7188 409.984 99.3438 407.422 99.3438C405.422 99.3438 403.531 99.625 401.75 100.188C399.969 100.75 398.328 101.562 396.828 102.625C395.953 103.25 395.125 103.953 394.344 104.734C393.562 105.516 392.844 106.375 392.188 107.312L391.391 100.281H379.578V151ZM459.688 141.531C457.594 141.531 455.859 141.109 454.484 140.266C453.141 139.422 452.078 138.297 451.297 136.891C450.484 135.516 449.922 133.922 449.609 132.109C449.297 130.266 449.141 128.359 449.141 126.391V124.984C449.141 123.047 449.297 121.172 449.609 119.359C449.953 117.547 450.531 115.938 451.344 114.531C452.125 113.125 453.188 112 454.531 111.156C455.875 110.312 457.578 109.891 459.641 109.891C461.047 109.891 462.344 110.141 463.531 110.641C464.719 111.109 465.734 111.75 466.578 112.562C467.422 113.375 468.062 114.344 468.5 115.469C468.938 116.594 469.125 117.781 469.062 119.031H481.344C481.406 116.031 480.906 113.328 479.844 110.922C478.781 108.484 477.297 106.406 475.391 104.688C473.453 103 471.156 101.688 468.5 100.75C465.844 99.8125 462.953 99.3438 459.828 99.3438C455.922 99.3438 452.484 100.016 449.516 101.359C446.578 102.703 444.109 104.531 442.109 106.844C440.109 109.156 438.609 111.875 437.609 115C436.609 118.094 436.109 121.422 436.109 124.984V126.391C436.109 129.953 436.609 133.297 437.609 136.422C438.641 139.516 440.156 142.219 442.156 144.531C444.125 146.844 446.594 148.672 449.562 150.016C452.531 151.328 455.984 151.984 459.922 151.984C462.828 151.984 465.578 151.531 468.172 150.625C470.797 149.688 473.094 148.406 475.062 146.781C477.031 145.156 478.578 143.219 479.703 140.969C480.859 138.719 481.406 136.281 481.344 133.656H469.062C469.125 134.844 468.906 135.922 468.406 136.891C467.938 137.859 467.266 138.688 466.391 139.375C465.516 140.062 464.5 140.594 463.344 140.969C462.188 141.344 460.969 141.531 459.688 141.531ZM507.922 107.266V79H494.891V151H507.922V114.391C508.422 113.734 508.969 113.141 509.562 112.609C510.188 112.078 510.875 111.625 511.625 111.25C512.438 110.812 513.344 110.484 514.344 110.266C515.344 110.047 516.422 109.938 517.578 109.938C519.078 109.938 520.422 110.141 521.609 110.547C522.797 110.922 523.812 111.516 524.656 112.328C525.5 113.141 526.141 114.203 526.578 115.516C527.047 116.828 527.281 118.391 527.281 120.203V151H540.312V120.297C540.312 116.578 539.859 113.406 538.953 110.781C538.078 108.125 536.844 105.953 535.25 104.266C533.656 102.578 531.75 101.344 529.531 100.562C527.312 99.75 524.875 99.3438 522.219 99.3438C520.406 99.3438 518.688 99.6094 517.062 100.141C515.438 100.672 513.953 101.422 512.609 102.391C511.734 103.016 510.891 103.75 510.078 104.594C509.297 105.406 508.578 106.297 507.922 107.266ZM577.156 151.938C582.062 151.938 586.312 150.984 589.906 149.078C593.5 147.172 596.125 145.047 597.781 142.703L591.266 135.672C589.766 137.609 587.812 139.062 585.406 140.031C583 141 580.516 141.484 577.953 141.484C576.141 141.484 574.469 141.203 572.938 140.641C571.406 140.078 570.047 139.281 568.859 138.25C567.703 137.25 566.781 136.141 566.094 134.922C565.406 133.672 564.844 132.031 564.406 130V129.859H598.812V124.328C598.812 120.609 598.297 117.219 597.266 114.156C596.234 111.062 594.734 108.422 592.766 106.234C590.766 104.047 588.328 102.359 585.453 101.172C582.609 99.9531 579.359 99.3438 575.703 99.3438C572.172 99.3438 568.906 99.9844 565.906 101.266C562.906 102.547 560.312 104.344 558.125 106.656C555.938 108.969 554.234 111.734 553.016 114.953C551.797 118.141 551.188 121.672 551.188 125.547V127.422C551.188 130.828 551.797 134.031 553.016 137.031C554.266 140 556.031 142.578 558.312 144.766C560.594 146.984 563.328 148.734 566.516 150.016C569.703 151.297 573.25 151.938 577.156 151.938ZM575.609 109.891C577.266 109.891 578.719 110.156 579.969 110.688C581.25 111.188 582.328 111.875 583.203 112.75C584.078 113.656 584.766 114.719 585.266 115.938C585.766 117.156 586.016 118.453 586.016 119.828V120.859H564.641C564.953 119.203 565.422 117.703 566.047 116.359C566.672 115.016 567.453 113.859 568.391 112.891C569.297 111.922 570.359 111.188 571.578 110.688C572.797 110.156 574.141 109.891 575.609 109.891ZM646.625 99.3438C643.219 99.3438 640.078 100.172 637.203 101.828C634.328 103.453 631.859 105.703 629.797 108.578L629.703 107.453L629.188 100.281H617.047V151H630.078V120.531C630.672 119.094 631.422 117.844 632.328 116.781C633.234 115.719 634.328 114.844 635.609 114.156C636.672 113.562 637.875 113.125 639.219 112.844C640.594 112.531 642.125 112.375 643.812 112.375C645.438 112.375 647.141 112.484 648.922 112.703C650.734 112.891 652.5 113.188 654.219 113.594L656.141 100.609C655.109 100.297 653.75 100.016 652.062 99.7656C650.406 99.4844 648.594 99.3438 646.625 99.3438Z" fill="white"/>
</svg>
