<svg width="137" height="137" viewBox="0 0 137 137" fill="none" xmlns="http://www.w3.org/2000/svg">
<rect width="137" height="137" fill="#62AEEF"/>
<path d="M62.9413 95.6093C70.3033 95.6077 77.4531 93.1432 83.2523 88.6081L101.485 106.841L107.35 100.976L89.117 82.7433C93.6545 76.9435 96.1206 69.7921 96.1224 62.4282C96.1224 44.133 81.2365 29.2472 62.9413 29.2472C44.6462 29.2472 29.7603 44.133 29.7603 62.4282C29.7603 80.7234 44.6462 95.6093 62.9413 95.6093ZM62.9413 37.5425C76.6658 37.5425 87.8271 48.7037 87.8271 62.4282C87.8271 76.1527 76.6658 87.314 62.9413 87.314C49.2168 87.314 38.0556 76.1527 38.0556 62.4282C38.0556 48.7037 49.2168 37.5425 62.9413 37.5425Z" fill="white"/>
<path d="M68.7978 56.5635C70.3698 58.1396 71.2366 60.2217 71.2366 62.4282H79.5319C79.5356 60.2483 79.1071 58.0894 78.2713 56.0761C77.4355 54.0628 76.209 52.2351 74.6626 50.6987C68.3831 44.4275 57.4955 44.4275 51.2202 50.6987L57.0766 56.5718C60.2288 53.4279 65.6622 53.4362 68.7978 56.5635Z" fill="white"/>
</svg>
